<?xml version="1.0" encoding="UTF-8"?>
<svg width="700pt" height="700pt" version="1.1" viewBox="0 0 700 700" xmlns="http://www.w3.org/2000/svg">
 <g>
  <path d="m20.609 498.51c-14.059 14.066-14.059 36.879 0 50.945 7.0352 7.0352 16.258 10.551 25.48 10.551s18.441-3.5117 25.48-10.551l282.32-282.33 274.54 274.56c14.074 14.074 36.895 14.074 50.945 0 14.074-14.066 14.074-36.879 0.011719-50.945l-325.5-325.51z"/>
  <path d="m679.39 325.53-325.5-325.53-333.28 333.27c-14.059 14.066-14.059 36.879 0 50.945 7.0352 7.0352 16.258 10.551 25.48 10.551s18.441-3.5117 25.48-10.551l282.32-282.33 274.54 274.59c14.074 14.074 36.895 14.074 50.945 0 14.074-14.066 14.074-36.871 0.011719-50.945z"/>
 </g>
</svg>
